<?xml version="1.0" standalone="no"?>
<!DOCTYPE svg PUBLIC "-//W3C//DTD SVG 20010904//EN"
 "http://www.w3.org/TR/2001/REC-SVG-20010904/DTD/svg10.dtd">
<svg version="1.0" xmlns="http://www.w3.org/2000/svg"
 width="427.000000pt" height="103.000000pt" viewBox="0 0 427.000000 103.000000"
 preserveAspectRatio="xMidYMid meet">

<g transform="translate(0.000000,103.000000) scale(0.100000,-0.100000)"
fill="#000000" stroke="none">
<path d="M22 513 l3 -498 2115 0 2115 0 3 498 2 497 -2120 0 -2120 0 2 -497z
m4136 399 c9 -7 12 -95 10 -408 l-3 -399 -1530 0 -1530 0 -3 395 c-1 217 0
401 3 407 3 10 316 13 1522 13 835 0 1524 -4 1531 -8z m-3827 -155 c-6 -8 -8
-17 -4 -20 9 -10 103 -8 208 3 286 30 287 30 314 17 32 -15 39 -55 14 -85 -15
-19 -23 -21 -50 -13 -18 5 -76 12 -130 16 l-99 7 3 -38 c2 -22 -5 -120 -15
-219 l-17 -180 -45 0 -45 0 0 55 c0 30 11 100 24 155 13 55 26 128 28 162 l5
63 -103 -6 c-115 -6 -152 4 -157 44 -5 32 15 52 50 52 24 0 28 -3 19 -13z"/>
</g>
</svg>
